<?xml version="1.0" standalone="no"?>
<!DOCTYPE svg PUBLIC "-//W3C//DTD SVG 20010904//EN"
 "http://www.w3.org/TR/2001/REC-SVG-20010904/DTD/svg10.dtd">
<svg version="1.0" xmlns="http://www.w3.org/2000/svg"
 width="416.000000pt" height="416.000000pt" viewBox="0 0 416.000000 416.000000"
 preserveAspectRatio="xMidYMid meet">

<g transform="translate(0.000000,416.000000) scale(0.100000,-0.100000)"
fill="#000000" stroke="none">
<path d="M882 3827 c-18 -19 -22 -37 -24 -117 l-3 -95 -196 -5 c-175 -4 -199
-7 -218 -24 l-21 -19 0 -1536 c0 -1466 1 -1538 19 -1576 24 -53 75 -103 129
-126 42 -18 88 -19 1079 -19 757 0 1046 3 1074 12 51 15 114 69 142 122 22 41
22 45 25 575 l3 533 -33 -27 c-18 -15 -54 -47 -80 -72 l-48 -44 0 -435 c0
-445 -1 -462 -39 -491 -12 -10 -251 -12 -1039 -13 l-1023 0 -24 25 -25 24 0
1466 0 1465 140 0 140 0 0 -41 c0 -30 -8 -50 -31 -79 -75 -93 -33 -225 77
-246 140 -26 231 135 139 245 -19 21 -25 41 -25 75 l0 46 155 0 155 0 0 -49
c0 -32 -5 -53 -16 -62 -48 -40 -59 -134 -21 -190 59 -89 185 -89 244 0 38 56
27 150 -21 190 -11 9 -16 30 -16 62 l0 49 155 0 155 0 0 -49 c0 -32 -5 -53
-16 -62 -46 -38 -61 -141 -27 -187 69 -92 190 -93 251 -2 34 50 27 121 -16
181 -23 30 -32 54 -32 81 l0 38 160 0 160 0 0 -47 c0 -37 -6 -53 -26 -74 -55
-58 -50 -154 11 -208 140 -123 328 65 205 206 -24 27 -30 43 -30 78 l0 45 140
0 140 0 2 -584 3 -585 78 71 77 70 0 569 0 570 -25 24 c-24 25 -25 25 -220 25
l-195 0 0 98 c0 90 -2 100 -23 120 -23 22 -60 28 -92 16 -30 -12 -45 -60 -45
-146 l0 -83 -152 0 c-91 0 -156 4 -160 10 -5 6 -7 47 -6 93 1 74 -1 85 -22
107 -25 26 -67 33 -100 15 -26 -14 -40 -63 -40 -146 l0 -74 -154 0 -154 0 -7
40 c-4 22 -4 53 0 70 8 38 -11 97 -35 110 -33 18 -75 11 -100 -15 -21 -23 -24
-35 -24 -118 -1 -50 -4 -91 -8 -89 -5 1 -75 2 -158 2 l-150 0 0 80 c0 84 -15
132 -45 144 -33 12 -72 6 -93 -17z"/>
<path d="M1227 2768 c-9 -7 -56 -63 -105 -125 l-90 -112 -40 44 c-44 48 -78
58 -106 29 -30 -29 -19 -61 47 -137 68 -77 105 -99 131 -78 32 26 256 313 256
327 0 19 -44 64 -63 64 -7 0 -21 -6 -30 -12z"/>
<path d="M3400 2700 c-49 -44 -91 -84 -94 -88 -3 -5 49 -68 115 -140 l121
-133 70 63 c162 143 161 138 53 259 -137 152 -138 152 -265 39z"/>
<path d="M1396 2571 c-25 -27 -17 -72 14 -88 33 -17 924 -19 967 -2 46 17 58
62 25 92 -17 15 -66 17 -504 17 -465 0 -486 -1 -502 -19z"/>
<path d="M2802 2153 l-413 -376 53 -28 c67 -37 129 -103 165 -179 l28 -58 405
368 c222 203 406 373 408 379 2 5 -47 65 -109 133 -61 68 -115 126 -118 130
-3 4 -192 -162 -419 -369z"/>
<path d="M956 2217 c-56 -31 -79 -67 -84 -129 -5 -68 14 -117 62 -153 71 -54
168 -43 230 25 125 138 -46 350 -208 257z m129 -102 c14 -13 25 -33 25 -45 0
-29 -44 -70 -75 -70 -34 0 -65 33 -65 70 0 64 70 91 115 45z"/>
<path d="M1402 2114 c-30 -20 -30 -68 0 -88 20 -14 84 -16 498 -16 524 0 520
-1 520 60 0 61 4 60 -520 60 -414 0 -478 -2 -498 -16z"/>
<path d="M989 1770 c-74 -22 -119 -86 -119 -168 0 -122 132 -200 247 -145 41
19 79 73 89 126 20 116 -102 222 -217 187z m75 -101 c13 -7 30 -25 37 -41 10
-25 9 -33 -8 -56 -25 -33 -76 -41 -104 -16 -29 26 -25 78 7 103 31 24 35 25
68 10z"/>
<path d="M2321 1678 c-5 -13 -35 -87 -66 -166 -32 -79 -55 -145 -53 -147 8 -9
342 92 346 104 15 45 -77 175 -150 212 -49 25 -67 24 -77 -3z"/>
<path d="M1780 1662 c-338 -2 -376 -4 -387 -19 -18 -23 -16 -58 3 -77 14 -14
58 -16 371 -14 l355 3 20 49 c10 27 17 52 16 55 -2 3 -172 5 -378 3z"/>
<path d="M949 1287 c-52 -35 -79 -82 -79 -139 0 -194 257 -243 326 -63 20 55
14 103 -20 155 -46 70 -158 93 -227 47z m141 -104 c22 -28 21 -66 -3 -90 -41
-40 -117 -9 -117 48 0 65 80 93 120 42z"/>
<path d="M1395 1184 c-24 -25 -16 -76 15 -91 19 -10 132 -12 503 -11 461 3
479 4 493 22 19 27 18 60 -4 79 -17 15 -66 17 -505 17 -435 0 -487 -2 -502
-16z"/>
<path d="M1937 864 c-13 -13 -7 -91 7 -103 8 -7 34 -11 58 -9 l43 3 0 55 0 55
-50 3 c-28 2 -54 0 -58 -4z"/>
<path d="M2124 856 c-3 -7 -4 -33 -2 -57 l3 -44 50 0 50 0 3 58 3 57 -51 0
c-34 0 -52 -5 -56 -14z"/>
<path d="M2312 813 l3 -58 50 0 50 0 0 55 0 55 -53 3 -53 3 3 -58z"/>
</g>
</svg>
